<svg xmlns="http://www.w3.org/2000/svg" width="24" height="24" viewBox="0 0 24 24" fill="none" stroke="currentColor" stroke-width="2" stroke-linecap="round" stroke-linejoin="round">
  <path d="M12 2C6.48 2 2 6.48 2 12s4.48 10 10 10 10-4.48 10-10S17.52 2 12 2zm0 18c-4.41 0-8-3.59-8-8s3.59-8 8-8 8 3.59 8 8-3.59 8-8 8z"/>
  <path d="m10 15.586-3.293-3.293a1 1 0 0 1 1.414-1.414L10 12.758l4.879-4.879a1 1 0 0 1 1.414 1.414L11.414 15.586a1 1 0 0 1-1.414 0z"/>
  <path d="M12 6v2"/>
  <path d="M12 16v2"/>
  <path d="M6 12h2"/>
  <path d="M16 12h2"/>
  <path d="m16.95 7.05-.707.707"/>
  <path d="m7.757 16.243-.707.707"/>
  <path d="m16.95 16.95-.707-.707"/>
  <path d="m7.757 7.757-.707-.707"/>
</svg>